<mxfile host="app.diagrams.net" modified="2023-08-24T21:58:39.017Z" agent="Mozilla/5.0 (Windows NT 10.0; Win64; x64) AppleWebKit/537.36 (KHTML, like Gecko) Chrome/116.0.0.0 Safari/537.36" etag="53Ei9dESmN541pAz_xup" version="21.6.9" type="github">
  <diagram name="Página-1" id="ikCIMKXhQoy3tsDtYG8k">
    <mxGraphModel dx="2269" dy="1240" grid="1" gridSize="10" guides="1" tooltips="1" connect="1" arrows="1" fold="1" page="1" pageScale="1" pageWidth="827" pageHeight="1169" math="0" shadow="0">
      <root>
        <mxCell id="0" />
        <mxCell id="1" parent="0" />
        <mxCell id="G2dmJZzX6pnW-zjmPEIv-1" value="&lt;div style=&quot;line-height: 19px;&quot;&gt;&lt;font size=&quot;1&quot; color=&quot;#ffffff&quot; style=&quot;&quot;&gt;&lt;b style=&quot;font-size: 26px;&quot;&gt;Contract&amp;nbsp;&lt;/b&gt;&lt;/font&gt;&lt;br&gt;&lt;/div&gt;&lt;font color=&quot;#ffffff&quot; style=&quot;font-size: 26px;&quot;&gt;&lt;b&gt;RdpxV2Bond&lt;/b&gt;&lt;/font&gt;" style="rounded=1;whiteSpace=wrap;html=1;fillColor=#3333FF;strokeColor=#23445d;gradientColor=#999999;fontFamily=Helvetica;" parent="1" vertex="1">
          <mxGeometry x="617.5" y="60" width="380" height="80" as="geometry" />
        </mxCell>
        <mxCell id="G2dmJZzX6pnW-zjmPEIv-3" value="" style="html=1;shadow=0;dashed=0;align=center;verticalAlign=middle;shape=mxgraph.arrows2.arrow;dy=0.67;dx=20;notch=0;fillColor=#fff2cc;strokeColor=#d6b656;gradientColor=#ffd966;fontFamily=Helvetica;" parent="1" vertex="1">
          <mxGeometry x="250" y="222.5" width="70" height="15" as="geometry" />
        </mxCell>
        <mxCell id="G2dmJZzX6pnW-zjmPEIv-5" value="" style="html=1;shadow=0;dashed=0;align=center;verticalAlign=middle;shape=mxgraph.arrows2.arrow;dy=0.6;dx=40;notch=15;direction=south;fillColor=#fff2cc;strokeColor=#d6b656;gradientColor=#ffd966;fontFamily=Helvetica;" parent="1" vertex="1">
          <mxGeometry x="135" y="260" width="30" height="90" as="geometry" />
        </mxCell>
        <mxCell id="G2dmJZzX6pnW-zjmPEIv-7" value="&lt;font color=&quot;#ffffff&quot; style=&quot;font-size: 19px;&quot;&gt;&lt;b&gt;State Variables&lt;/b&gt;&lt;/font&gt;" style="rounded=1;whiteSpace=wrap;html=1;fillColor=#3333FF;fontColor=default;strokeColor=#23445d;gradientColor=#999999;fontFamily=Helvetica;" parent="1" vertex="1">
          <mxGeometry x="80" y="213.6" width="160" height="40" as="geometry" />
        </mxCell>
        <mxCell id="G2dmJZzX6pnW-zjmPEIv-16" value="" style="html=1;shadow=0;dashed=0;align=center;verticalAlign=middle;shape=mxgraph.arrows2.arrow;dy=0.6;dx=40;notch=15;direction=south;fillColor=#fff2cc;strokeColor=#d6b656;gradientColor=#ffd966;fontFamily=Helvetica;" parent="1" vertex="1">
          <mxGeometry x="135" y="410" width="30" height="90" as="geometry" />
        </mxCell>
        <mxCell id="G2dmJZzX6pnW-zjmPEIv-17" value="&lt;b&gt;&lt;font color=&quot;#ffffff&quot; style=&quot;font-size: 20px;&quot;&gt;Constructor&lt;/font&gt;&lt;/b&gt;" style="rounded=1;whiteSpace=wrap;html=1;fillColor=#3333FF;fontColor=default;strokeColor=#23445d;gradientColor=#999999;fontFamily=Helvetica;" parent="1" vertex="1">
          <mxGeometry x="70" y="364.85" width="160" height="40" as="geometry" />
        </mxCell>
        <mxCell id="G2dmJZzX6pnW-zjmPEIv-211" value="" style="shape=table;startSize=0;container=1;collapsible=1;childLayout=tableLayout;fixedRows=1;rowLines=0;fontStyle=0;align=center;resizeLast=1;strokeColor=none;fillColor=none;collapsible=0;whiteSpace=wrap;html=1;" parent="1" vertex="1">
          <mxGeometry x="230" y="160" width="180" height="30" as="geometry" />
        </mxCell>
        <mxCell id="G2dmJZzX6pnW-zjmPEIv-212" value="" style="shape=tableRow;horizontal=0;startSize=0;swimlaneHead=0;swimlaneBody=0;fillColor=none;collapsible=0;dropTarget=0;points=[[0,0.5],[1,0.5]];portConstraint=eastwest;top=0;left=0;right=0;bottom=0;" parent="G2dmJZzX6pnW-zjmPEIv-211" vertex="1">
          <mxGeometry width="180" height="30" as="geometry" />
        </mxCell>
        <mxCell id="G2dmJZzX6pnW-zjmPEIv-213" value="" style="shape=partialRectangle;connectable=0;fillColor=none;top=0;left=0;bottom=0;right=0;editable=1;overflow=hidden;" parent="G2dmJZzX6pnW-zjmPEIv-212" vertex="1">
          <mxGeometry width="30" height="30" as="geometry">
            <mxRectangle width="30" height="30" as="alternateBounds" />
          </mxGeometry>
        </mxCell>
        <mxCell id="G2dmJZzX6pnW-zjmPEIv-214" value="" style="shape=partialRectangle;connectable=0;fillColor=none;top=0;left=0;bottom=0;right=0;align=left;spacingLeft=6;overflow=hidden;" parent="G2dmJZzX6pnW-zjmPEIv-212" vertex="1">
          <mxGeometry x="30" width="150" height="30" as="geometry">
            <mxRectangle width="150" height="30" as="alternateBounds" />
          </mxGeometry>
        </mxCell>
        <mxCell id="G2dmJZzX6pnW-zjmPEIv-229" value="" style="html=1;shadow=0;dashed=0;align=center;verticalAlign=middle;shape=mxgraph.arrows2.arrow;dy=0.67;dx=20;notch=0;fillColor=#fff2cc;strokeColor=#d6b656;gradientColor=#ffd966;fontFamily=Helvetica;" parent="1" vertex="1">
          <mxGeometry x="250" y="377.35" width="70" height="15" as="geometry" />
        </mxCell>
        <mxCell id="G2dmJZzX6pnW-zjmPEIv-230" value="&lt;div style=&quot;line-height: 19px;&quot;&gt;&lt;font size=&quot;1&quot; style=&quot;&quot;&gt;&lt;b style=&quot;font-size: 18px;&quot;&gt;The constructor of the contract takes care of&lt;/b&gt;&lt;/font&gt;&lt;br&gt;&lt;/div&gt;" style="text;html=1;strokeColor=none;fillColor=none;align=center;verticalAlign=middle;whiteSpace=wrap;rounded=0;fontFamily=Helvetica;" parent="1" vertex="1">
          <mxGeometry x="330" y="337.66" width="199" height="94.37" as="geometry" />
        </mxCell>
        <mxCell id="G2dmJZzX6pnW-zjmPEIv-238" value="" style="html=1;shadow=0;dashed=0;align=center;verticalAlign=middle;shape=mxgraph.arrows2.arrow;dy=0.67;dx=20;notch=0;fillColor=#fff2cc;strokeColor=#d6b656;gradientColor=#ffd966;fontFamily=Helvetica;" parent="1" vertex="1">
          <mxGeometry x="260" y="532.49" width="70" height="15" as="geometry" />
        </mxCell>
        <mxCell id="TQJwsVCRrnrHWuq3ZA7s-95" style="edgeStyle=orthogonalEdgeStyle;rounded=0;orthogonalLoop=1;jettySize=auto;html=1;exitX=1;exitY=0.5;exitDx=0;exitDy=0;" edge="1" parent="1" source="G2dmJZzX6pnW-zjmPEIv-244">
          <mxGeometry relative="1" as="geometry">
            <mxPoint x="719.9999999999998" y="189.31578947368428" as="targetPoint" />
          </mxGeometry>
        </mxCell>
        <mxCell id="G2dmJZzX6pnW-zjmPEIv-244" value="&lt;div style=&quot;line-height: 19px;&quot;&gt;&lt;font color=&quot;#ffffff&quot; style=&quot;font-size: 15px;&quot;&gt;_tokenIdCounter&lt;/font&gt;&lt;br&gt;&lt;/div&gt;" style="text;html=1;strokeColor=#23445d;fillColor=#3333FF;align=center;verticalAlign=middle;whiteSpace=wrap;rounded=1;gradientColor=#999999;fontFamily=Helvetica;" parent="1" vertex="1">
          <mxGeometry x="370" y="168.75" width="200" height="41.25" as="geometry" />
        </mxCell>
        <mxCell id="G2dmJZzX6pnW-zjmPEIv-255" value="" style="html=1;shadow=0;dashed=0;align=center;verticalAlign=middle;shape=mxgraph.arrows2.arrow;dy=0.6;dx=40;notch=15;direction=south;fillColor=#fff2cc;strokeColor=#d6b656;gradientColor=#ffd966;fontFamily=Helvetica;" parent="1" vertex="1">
          <mxGeometry x="135" y="585" width="30" height="90" as="geometry" />
        </mxCell>
        <mxCell id="G2dmJZzX6pnW-zjmPEIv-257" value="" style="html=1;shadow=0;dashed=0;align=center;verticalAlign=middle;shape=mxgraph.arrows2.arrow;dy=0.67;dx=20;notch=0;fillColor=#fff2cc;strokeColor=#d6b656;gradientColor=#ffd966;fontFamily=Helvetica;" parent="1" vertex="1">
          <mxGeometry x="260" y="711.21" width="70" height="15" as="geometry" />
        </mxCell>
        <mxCell id="G2dmJZzX6pnW-zjmPEIv-293" value="" style="html=1;shadow=0;dashed=0;align=center;verticalAlign=middle;shape=mxgraph.arrows2.arrow;dy=0.6;dx=40;notch=15;direction=south;fillColor=#fff2cc;strokeColor=#d6b656;gradientColor=#ffd966;fontFamily=Helvetica;" parent="1" vertex="1">
          <mxGeometry x="132.5" y="768.68" width="30" height="90" as="geometry" />
        </mxCell>
        <mxCell id="G2dmJZzX6pnW-zjmPEIv-326" value="&lt;div style=&quot;line-height: 19px; font-size: 9px;&quot;&gt;&lt;img alt=&quot;Icono de la página&quot; src=&quot;https://dopex.notion.site/image/https%3A%2F%2Fs3-us-west-2.amazonaws.com%2Fsecure.notion-static.com%2F39e1706c-1d8d-4771-9c02-e8affcfed0ed%2Flogo.png?table=block&amp;amp;id=b45b5b40-2af5-4bca-b758-d62fb7c69cb4&amp;amp;spaceId=7ec03ae2-8e00-4620-b583-264f9ddf1ae0&amp;amp;width=250&amp;amp;userId=&amp;amp;cache=v2&quot;&gt;&lt;br&gt;&lt;/div&gt;" style="text;html=1;strokeColor=none;fillColor=none;align=center;verticalAlign=middle;whiteSpace=wrap;rounded=0;fontFamily=Helvetica;" parent="1" vertex="1">
          <mxGeometry x="1180" y="459.00000000000006" width="281.5" height="250" as="geometry" />
        </mxCell>
        <mxCell id="G2dmJZzX6pnW-zjmPEIv-390" value="&lt;font style=&quot;font-size: 17px;&quot;&gt;Pause/Unpause Functions&lt;/font&gt;" style="label;whiteSpace=wrap;html=1;image=img/clipart/Gear_128x128.png;fontFamily=Helvetica;" parent="1" vertex="1">
          <mxGeometry x="55" y="509.99" width="190" height="60" as="geometry" />
        </mxCell>
        <mxCell id="TQJwsVCRrnrHWuq3ZA7s-27" value="&lt;div style=&quot;line-height: 19px;&quot;&gt;&lt;b&gt;&lt;font style=&quot;font-size: 15px;&quot;&gt;These functions enable pausing and resuming token transfers within the contract&lt;/font&gt;&lt;/b&gt;&lt;br&gt;&lt;/div&gt;" style="text;html=1;strokeColor=none;fillColor=none;align=center;verticalAlign=middle;whiteSpace=wrap;rounded=0;fontFamily=Helvetica;" vertex="1" parent="1">
          <mxGeometry x="330" y="482.81000000000006" width="199" height="94.37" as="geometry" />
        </mxCell>
        <mxCell id="TQJwsVCRrnrHWuq3ZA7s-28" value="Only for" style="html=1;verticalAlign=bottom;startArrow=oval;startFill=1;endArrow=block;startSize=8;edgeStyle=elbowEdgeStyle;elbow=vertical;curved=0;rounded=0;" edge="1" parent="1">
          <mxGeometry width="60" relative="1" as="geometry">
            <mxPoint x="554" y="529.68" as="sourcePoint" />
            <mxPoint x="680" y="530.18" as="targetPoint" />
          </mxGeometry>
        </mxCell>
        <mxCell id="TQJwsVCRrnrHWuq3ZA7s-44" value="&lt;font style=&quot;font-size: 18px;&quot;&gt;Mint Function&lt;/font&gt;" style="label;whiteSpace=wrap;html=1;image=img/clipart/Gear_128x128.png;fontFamily=Helvetica;" vertex="1" parent="1">
          <mxGeometry x="55" y="688.71" width="190" height="60" as="geometry" />
        </mxCell>
        <mxCell id="TQJwsVCRrnrHWuq3ZA7s-73" value="&lt;font style=&quot;font-size: 16px;&quot;&gt;_beforeTokenTransfer Function&lt;/font&gt;" style="label;whiteSpace=wrap;html=1;image=img/clipart/Gear_128x128.png;fontFamily=Helvetica;" vertex="1" parent="1">
          <mxGeometry x="25" y="876.26" width="245" height="59.21" as="geometry" />
        </mxCell>
        <mxCell id="TQJwsVCRrnrHWuq3ZA7s-93" value="" style="strokeWidth=2;html=1;shape=mxgraph.flowchart.annotation_2;align=left;labelPosition=right;pointerEvents=1;fontFamily=Helvetica;" vertex="1" parent="1">
          <mxGeometry x="330" y="163.01" width="50" height="133.98" as="geometry" />
        </mxCell>
        <mxCell id="TQJwsVCRrnrHWuq3ZA7s-96" style="edgeStyle=orthogonalEdgeStyle;rounded=0;orthogonalLoop=1;jettySize=auto;html=1;exitX=1;exitY=0.5;exitDx=0;exitDy=0;" edge="1" parent="1" source="TQJwsVCRrnrHWuq3ZA7s-94">
          <mxGeometry relative="1" as="geometry">
            <mxPoint x="719.9999999999998" y="269.3157894736843" as="targetPoint" />
          </mxGeometry>
        </mxCell>
        <mxCell id="TQJwsVCRrnrHWuq3ZA7s-94" value="&lt;div style=&quot;line-height: 19px;&quot;&gt;&lt;font color=&quot;#ffffff&quot; style=&quot;font-size: 15px;&quot;&gt;MINTER_ROLE&lt;/font&gt;&lt;br&gt;&lt;/div&gt;" style="text;html=1;strokeColor=#23445d;fillColor=#3333FF;align=center;verticalAlign=middle;whiteSpace=wrap;rounded=1;gradientColor=#999999;fontFamily=Helvetica;" vertex="1" parent="1">
          <mxGeometry x="370" y="248.59" width="200" height="41.25" as="geometry" />
        </mxCell>
        <mxCell id="TQJwsVCRrnrHWuq3ZA7s-97" value="&lt;div style=&quot;line-height: 120%;&quot;&gt;&lt;div style=&quot;line-height: 120%;&quot;&gt;&lt;div style=&quot;line-height: 120%;&quot;&gt;&lt;font style=&quot;font-size: 15px;&quot;&gt;Counter to keep track of created NFT token IDs&lt;/font&gt;&lt;br&gt;&lt;/div&gt;&lt;/div&gt;&lt;/div&gt;" style="text;html=1;strokeColor=none;fillColor=none;align=left;verticalAlign=middle;whiteSpace=wrap;rounded=0;fontFamily=Helvetica;" vertex="1" parent="1">
          <mxGeometry x="730" y="179.83999999999997" width="400" height="19.07" as="geometry" />
        </mxCell>
        <mxCell id="TQJwsVCRrnrHWuq3ZA7s-98" value="&lt;div style=&quot;line-height: 120%;&quot;&gt;&lt;div style=&quot;line-height: 120%;&quot;&gt;&lt;div style=&quot;line-height: 120%;&quot;&gt;&lt;font style=&quot;font-size: 15px;&quot;&gt;Role that allows certain addresses to create new NFT tokens&lt;/font&gt;&lt;br&gt;&lt;/div&gt;&lt;/div&gt;&lt;/div&gt;" style="text;html=1;strokeColor=none;fillColor=none;align=left;verticalAlign=middle;whiteSpace=wrap;rounded=0;fontFamily=Helvetica;" vertex="1" parent="1">
          <mxGeometry x="730" y="259.68" width="410" height="19.07" as="geometry" />
        </mxCell>
        <mxCell id="TQJwsVCRrnrHWuq3ZA7s-99" value="" style="html=1;shadow=0;dashed=0;align=center;verticalAlign=middle;shape=mxgraph.arrows2.arrow;dy=0.67;dx=20;notch=0;fillColor=#fff2cc;strokeColor=#d6b656;gradientColor=#ffd966;fontFamily=Helvetica;" vertex="1" parent="1">
          <mxGeometry x="535" y="374.22" width="70" height="15" as="geometry" />
        </mxCell>
        <mxCell id="TQJwsVCRrnrHWuq3ZA7s-100" value="&lt;div style=&quot;line-height: 120%;&quot;&gt;&lt;div style=&quot;line-height: 120%;&quot;&gt;&lt;div style=&quot;line-height: 120%;&quot;&gt;&lt;font style=&quot;font-size: 15px;&quot;&gt;Initializing the contract with the name and symbol of the NFT&lt;/font&gt;&lt;br&gt;&lt;/div&gt;&lt;/div&gt;&lt;/div&gt;" style="text;html=1;strokeColor=none;fillColor=none;align=left;verticalAlign=middle;whiteSpace=wrap;rounded=0;fontFamily=Helvetica;" vertex="1" parent="1">
          <mxGeometry x="669.9999999999999" y="337.66" width="410" height="19.07" as="geometry" />
        </mxCell>
        <mxCell id="TQJwsVCRrnrHWuq3ZA7s-101" value="" style="strokeWidth=2;html=1;shape=mxgraph.flowchart.annotation_2;align=left;labelPosition=right;pointerEvents=1;fontFamily=Helvetica;" vertex="1" parent="1">
          <mxGeometry x="617.5" y="329.09000000000003" width="50" height="105.27" as="geometry" />
        </mxCell>
        <mxCell id="TQJwsVCRrnrHWuq3ZA7s-102" value="&lt;div style=&quot;line-height: 120%;&quot;&gt;&lt;div style=&quot;line-height: 120%;&quot;&gt;&lt;div style=&quot;line-height: 120%;&quot;&gt;&lt;font style=&quot;font-size: 15px;&quot;&gt;Assigning the default administrator role to the contract creator&lt;/font&gt;&lt;br&gt;&lt;/div&gt;&lt;/div&gt;&lt;/div&gt;" style="text;html=1;strokeColor=none;fillColor=none;align=left;verticalAlign=middle;whiteSpace=wrap;rounded=0;fontFamily=Helvetica;" vertex="1" parent="1">
          <mxGeometry x="670" y="370.15" width="420" height="19.07" as="geometry" />
        </mxCell>
        <mxCell id="TQJwsVCRrnrHWuq3ZA7s-103" value="&lt;div style=&quot;line-height: 120%;&quot;&gt;&lt;div style=&quot;line-height: 120%;&quot;&gt;&lt;div style=&quot;line-height: 120%;&quot;&gt;&lt;font style=&quot;font-size: 15px;&quot;&gt;Assigning the &quot;Minter&quot; role to the contract creator&lt;/font&gt;&lt;br&gt;&lt;/div&gt;&lt;/div&gt;&lt;/div&gt;" style="text;html=1;strokeColor=none;fillColor=none;align=left;verticalAlign=middle;whiteSpace=wrap;rounded=0;fontFamily=Helvetica;" vertex="1" parent="1">
          <mxGeometry x="667.4999999999999" y="404.85" width="410" height="19.07" as="geometry" />
        </mxCell>
        <mxCell id="TQJwsVCRrnrHWuq3ZA7s-106" value="&lt;div style=&quot;line-height: 120%; font-size: 13px;&quot;&gt;&lt;div style=&quot;line-height: 120%; font-size: 13px;&quot;&gt;&lt;div style=&quot;line-height: 120%; font-size: 13px;&quot;&gt;&lt;span style=&quot;font-size: 13px;&quot;&gt;⚙️&lt;/span&gt;&lt;/div&gt;&lt;/div&gt;&lt;/div&gt;" style="text;html=1;strokeColor=none;fillColor=none;align=left;verticalAlign=middle;whiteSpace=wrap;rounded=0;fontFamily=Helvetica;fontSize=13;" vertex="1" parent="1">
          <mxGeometry x="650" y="333.6" width="28.43" height="27.19" as="geometry" />
        </mxCell>
        <mxCell id="TQJwsVCRrnrHWuq3ZA7s-107" value="&lt;div style=&quot;line-height: 120%; font-size: 13px;&quot;&gt;&lt;div style=&quot;line-height: 120%; font-size: 13px;&quot;&gt;&lt;div style=&quot;line-height: 120%; font-size: 13px;&quot;&gt;&lt;span style=&quot;font-size: 13px;&quot;&gt;⚙️&lt;/span&gt;&lt;/div&gt;&lt;/div&gt;&lt;/div&gt;" style="text;html=1;strokeColor=none;fillColor=none;align=left;verticalAlign=middle;whiteSpace=wrap;rounded=0;fontFamily=Helvetica;fontSize=13;" vertex="1" parent="1">
          <mxGeometry x="650" y="368.12" width="28.43" height="27.19" as="geometry" />
        </mxCell>
        <mxCell id="TQJwsVCRrnrHWuq3ZA7s-108" value="&lt;div style=&quot;line-height: 120%; font-size: 13px;&quot;&gt;&lt;div style=&quot;line-height: 120%; font-size: 13px;&quot;&gt;&lt;div style=&quot;line-height: 120%; font-size: 13px;&quot;&gt;&lt;span style=&quot;font-size: 13px;&quot;&gt;⚙️&lt;/span&gt;&lt;/div&gt;&lt;/div&gt;&lt;/div&gt;" style="text;html=1;strokeColor=none;fillColor=none;align=left;verticalAlign=middle;whiteSpace=wrap;rounded=0;fontFamily=Helvetica;fontSize=13;" vertex="1" parent="1">
          <mxGeometry x="650" y="400.79" width="28.43" height="27.19" as="geometry" />
        </mxCell>
        <mxCell id="TQJwsVCRrnrHWuq3ZA7s-109" value="&lt;div style=&quot;line-height: 120%;&quot;&gt;&lt;div style=&quot;line-height: 120%;&quot;&gt;&lt;div style=&quot;line-height: 120%;&quot;&gt;&lt;font style=&quot;font-size: 51px;&quot;&gt;⚒️&lt;/font&gt;&lt;/div&gt;&lt;/div&gt;&lt;/div&gt;" style="text;html=1;strokeColor=none;fillColor=none;align=left;verticalAlign=middle;whiteSpace=wrap;rounded=0;fontFamily=Helvetica;" vertex="1" parent="1">
          <mxGeometry x="1090" y="343.44" width="68.75" height="72.49" as="geometry" />
        </mxCell>
        <mxCell id="TQJwsVCRrnrHWuq3ZA7s-111" value="&lt;div style=&quot;line-height: 19px;&quot;&gt;&lt;font color=&quot;#ffffff&quot; style=&quot;font-size: 15px;&quot;&gt;Admins&lt;/font&gt;&lt;br&gt;&lt;/div&gt;" style="text;html=1;strokeColor=#23445d;fillColor=#3333FF;align=center;verticalAlign=middle;whiteSpace=wrap;rounded=1;gradientColor=#999999;fontFamily=Helvetica;" vertex="1" parent="1">
          <mxGeometry x="690" y="511.24" width="200" height="37.51" as="geometry" />
        </mxCell>
        <mxCell id="TQJwsVCRrnrHWuq3ZA7s-112" value="User with Miter role" style="shape=umlActor;verticalLabelPosition=bottom;verticalAlign=top;html=1;outlineConnect=0;" vertex="1" parent="1">
          <mxGeometry x="340" y="640" width="50" height="108.71" as="geometry" />
        </mxCell>
        <mxCell id="TQJwsVCRrnrHWuq3ZA7s-114" value="" style="html=1;shadow=0;dashed=0;align=center;verticalAlign=middle;shape=mxgraph.arrows2.arrow;dy=0.67;dx=20;notch=0;fillColor=#fff2cc;strokeColor=#d6b656;gradientColor=#ffd966;fontFamily=Helvetica;" vertex="1" parent="1">
          <mxGeometry x="435" y="711.21" width="70" height="15" as="geometry" />
        </mxCell>
        <mxCell id="TQJwsVCRrnrHWuq3ZA7s-116" style="edgeStyle=orthogonalEdgeStyle;rounded=0;orthogonalLoop=1;jettySize=auto;html=1;exitX=1;exitY=0.5;exitDx=0;exitDy=0;" edge="1" parent="1" source="TQJwsVCRrnrHWuq3ZA7s-115">
          <mxGeometry relative="1" as="geometry">
            <mxPoint x="850" y="719" as="targetPoint" />
          </mxGeometry>
        </mxCell>
        <mxCell id="TQJwsVCRrnrHWuq3ZA7s-115" value="&lt;div style=&quot;line-height: 120%;&quot;&gt;&lt;div style=&quot;line-height: 120%;&quot;&gt;&lt;div style=&quot;line-height: 120%;&quot;&gt;&lt;font style=&quot;font-size: 15px;&quot;&gt;Create new NFT tokens (bonds)&lt;/font&gt;&lt;br&gt;&lt;/div&gt;&lt;/div&gt;&lt;/div&gt;" style="text;html=1;strokeColor=none;fillColor=none;align=left;verticalAlign=middle;whiteSpace=wrap;rounded=0;fontFamily=Helvetica;" vertex="1" parent="1">
          <mxGeometry x="520" y="697.28" width="245" height="42.86" as="geometry" />
        </mxCell>
        <mxCell id="TQJwsVCRrnrHWuq3ZA7s-117" value="&lt;div style=&quot;line-height: 120%;&quot;&gt;&lt;div style=&quot;line-height: 120%;&quot;&gt;&lt;div style=&quot;line-height: 120%;&quot;&gt;&lt;font style=&quot;font-size: 15px;&quot;&gt;Assign them to a specific address&lt;/font&gt;&lt;br&gt;&lt;/div&gt;&lt;/div&gt;&lt;/div&gt;" style="text;html=1;strokeColor=none;fillColor=none;align=left;verticalAlign=middle;whiteSpace=wrap;rounded=0;fontFamily=Helvetica;" vertex="1" parent="1">
          <mxGeometry x="857.5" y="697.28" width="245" height="42.86" as="geometry" />
        </mxCell>
        <mxCell id="TQJwsVCRrnrHWuq3ZA7s-118" value="" style="html=1;shadow=0;dashed=0;align=center;verticalAlign=middle;shape=mxgraph.arrows2.arrow;dy=0.67;dx=20;notch=0;fillColor=#fff2cc;strokeColor=#d6b656;gradientColor=#ffd966;fontFamily=Helvetica;" vertex="1" parent="1">
          <mxGeometry x="285" y="898.36" width="70" height="15" as="geometry" />
        </mxCell>
        <mxCell id="TQJwsVCRrnrHWuq3ZA7s-119" value="&lt;div style=&quot;line-height: 19px;&quot;&gt;&lt;font style=&quot;font-size: 16px;&quot;&gt;&lt;b&gt;This is an internal hook that is called before token transfers&lt;/b&gt;&lt;/font&gt;&lt;br&gt;&lt;/div&gt;" style="text;html=1;strokeColor=none;fillColor=none;align=center;verticalAlign=middle;whiteSpace=wrap;rounded=0;fontFamily=Helvetica;" vertex="1" parent="1">
          <mxGeometry x="361" y="858.6800000000001" width="199" height="94.37" as="geometry" />
        </mxCell>
        <mxCell id="TQJwsVCRrnrHWuq3ZA7s-120" value="" style="html=1;shadow=0;dashed=0;align=center;verticalAlign=middle;shape=mxgraph.arrows2.arrow;dy=0.67;dx=20;notch=0;fillColor=#fff2cc;strokeColor=#d6b656;gradientColor=#ffd966;fontFamily=Helvetica;" vertex="1" parent="1">
          <mxGeometry x="560" y="898.36" width="70" height="15" as="geometry" />
        </mxCell>
        <mxCell id="TQJwsVCRrnrHWuq3ZA7s-121" value="&lt;div style=&quot;line-height: 19px;&quot;&gt;&lt;font color=&quot;#ffffff&quot; style=&quot;font-size: 15px;&quot;&gt;&lt;b&gt;It ensures&lt;/b&gt;&lt;/font&gt;&lt;br&gt;&lt;/div&gt;" style="text;html=1;strokeColor=#23445d;fillColor=#3333FF;align=center;verticalAlign=middle;whiteSpace=wrap;rounded=1;gradientColor=#999999;fontFamily=Helvetica;" vertex="1" parent="1">
          <mxGeometry x="640" y="887.11" width="120" height="37.51" as="geometry" />
        </mxCell>
        <mxCell id="TQJwsVCRrnrHWuq3ZA7s-122" value="" style="strokeWidth=2;html=1;shape=mxgraph.flowchart.annotation_2;align=left;labelPosition=right;pointerEvents=1;fontFamily=Helvetica;" vertex="1" parent="1">
          <mxGeometry x="770" y="862.48" width="50" height="86.77" as="geometry" />
        </mxCell>
        <mxCell id="TQJwsVCRrnrHWuq3ZA7s-123" value="&lt;div style=&quot;line-height: 120%;&quot;&gt;&lt;div style=&quot;line-height: 120%;&quot;&gt;&lt;div style=&quot;line-height: 120%;&quot;&gt;&lt;font style=&quot;font-size: 15px;&quot;&gt;Transfers only happen when the contract is not paused&lt;/font&gt;&lt;br&gt;&lt;/div&gt;&lt;/div&gt;&lt;/div&gt;" style="text;html=1;strokeColor=none;fillColor=none;align=left;verticalAlign=middle;whiteSpace=wrap;rounded=0;fontFamily=Helvetica;" vertex="1" parent="1">
          <mxGeometry x="832.4999999999999" y="876.26" width="410" height="19.07" as="geometry" />
        </mxCell>
        <mxCell id="TQJwsVCRrnrHWuq3ZA7s-124" value="&lt;div style=&quot;line-height: 120%;&quot;&gt;&lt;div style=&quot;line-height: 120%;&quot;&gt;&lt;div style=&quot;line-height: 120%;&quot;&gt;&lt;font style=&quot;font-size: 15px;&quot;&gt;other conditions are met&lt;/font&gt;&lt;br&gt;&lt;/div&gt;&lt;/div&gt;&lt;/div&gt;" style="text;html=1;strokeColor=none;fillColor=none;align=left;verticalAlign=middle;whiteSpace=wrap;rounded=0;fontFamily=Helvetica;" vertex="1" parent="1">
          <mxGeometry x="832.4999999999999" y="916.4" width="410" height="19.07" as="geometry" />
        </mxCell>
        <mxCell id="TQJwsVCRrnrHWuq3ZA7s-125" value="&lt;div style=&quot;line-height: 120%; font-size: 13px;&quot;&gt;&lt;div style=&quot;line-height: 120%; font-size: 13px;&quot;&gt;&lt;div style=&quot;line-height: 120%; font-size: 13px;&quot;&gt;&lt;span style=&quot;font-size: 13px;&quot;&gt;⚙️&lt;/span&gt;&lt;/div&gt;&lt;/div&gt;&lt;/div&gt;" style="text;html=1;strokeColor=none;fillColor=none;align=left;verticalAlign=middle;whiteSpace=wrap;rounded=0;fontFamily=Helvetica;fontSize=13;" vertex="1" parent="1">
          <mxGeometry x="810" y="872.2" width="28.43" height="27.19" as="geometry" />
        </mxCell>
        <mxCell id="TQJwsVCRrnrHWuq3ZA7s-126" value="&lt;div style=&quot;line-height: 120%; font-size: 13px;&quot;&gt;&lt;div style=&quot;line-height: 120%; font-size: 13px;&quot;&gt;&lt;div style=&quot;line-height: 120%; font-size: 13px;&quot;&gt;&lt;span style=&quot;font-size: 13px;&quot;&gt;⚙️&lt;/span&gt;&lt;/div&gt;&lt;/div&gt;&lt;/div&gt;" style="text;html=1;strokeColor=none;fillColor=none;align=left;verticalAlign=middle;whiteSpace=wrap;rounded=0;fontFamily=Helvetica;fontSize=13;" vertex="1" parent="1">
          <mxGeometry x="810" y="912.34" width="28.43" height="27.19" as="geometry" />
        </mxCell>
        <mxCell id="TQJwsVCRrnrHWuq3ZA7s-127" value="Extends" style="endArrow=block;endSize=16;endFill=0;html=1;rounded=0;" edge="1" parent="1">
          <mxGeometry width="160" relative="1" as="geometry">
            <mxPoint x="1150" y="905.36" as="sourcePoint" />
            <mxPoint x="1310" y="905.36" as="targetPoint" />
          </mxGeometry>
        </mxCell>
        <mxCell id="TQJwsVCRrnrHWuq3ZA7s-128" value="&lt;div style=&quot;line-height: 19px;&quot;&gt;&lt;font color=&quot;#ffffff&quot; style=&quot;font-size: 15px;&quot;&gt;_beforeTokenTransfer&lt;/font&gt;&lt;br&gt;&lt;/div&gt;" style="text;html=1;strokeColor=#23445d;fillColor=#3333FF;align=center;verticalAlign=middle;whiteSpace=wrap;rounded=1;gradientColor=#999999;fontFamily=Helvetica;" vertex="1" parent="1">
          <mxGeometry x="1320" y="887.11" width="160" height="22.89" as="geometry" />
        </mxCell>
        <mxCell id="TQJwsVCRrnrHWuq3ZA7s-129" value="" style="html=1;shadow=0;dashed=0;align=center;verticalAlign=middle;shape=mxgraph.arrows2.arrow;dy=0.6;dx=40;notch=15;direction=south;fillColor=#fff2cc;strokeColor=#d6b656;gradientColor=#ffd966;fontFamily=Helvetica;" vertex="1" parent="1">
          <mxGeometry x="132.5" y="949.25" width="30" height="90" as="geometry" />
        </mxCell>
        <mxCell id="TQJwsVCRrnrHWuq3ZA7s-131" value="&lt;font style=&quot;font-size: 18px;&quot;&gt;Mint Function&lt;/font&gt;" style="label;whiteSpace=wrap;html=1;image=img/clipart/Gear_128x128.png;fontFamily=Helvetica;" vertex="1" parent="1">
          <mxGeometry x="60" y="1050" width="190" height="60" as="geometry" />
        </mxCell>
        <mxCell id="TQJwsVCRrnrHWuq3ZA7s-132" value="" style="html=1;shadow=0;dashed=0;align=center;verticalAlign=middle;shape=mxgraph.arrows2.arrow;dy=0.67;dx=20;notch=0;fillColor=#fff2cc;strokeColor=#d6b656;gradientColor=#ffd966;fontFamily=Helvetica;" vertex="1" parent="1">
          <mxGeometry x="285" y="1072.5" width="70" height="15" as="geometry" />
        </mxCell>
        <mxCell id="TQJwsVCRrnrHWuq3ZA7s-133" value="&lt;div style=&quot;line-height: 19px;&quot;&gt;&lt;font style=&quot;font-size: 17px;&quot;&gt;&lt;b&gt;This function checks which interfaces the contract supports&lt;/b&gt;&lt;/font&gt;&lt;br&gt;&lt;/div&gt;" style="text;html=1;strokeColor=none;fillColor=none;align=center;verticalAlign=middle;whiteSpace=wrap;rounded=0;fontFamily=Helvetica;" vertex="1" parent="1">
          <mxGeometry x="355" y="1032.81" width="199" height="94.37" as="geometry" />
        </mxCell>
        <mxCell id="TQJwsVCRrnrHWuq3ZA7s-134" value="" style="html=1;shadow=0;dashed=0;align=center;verticalAlign=middle;shape=mxgraph.arrows2.arrow;dy=0.67;dx=20;notch=0;fillColor=#fff2cc;strokeColor=#d6b656;gradientColor=#ffd966;fontFamily=Helvetica;" vertex="1" parent="1">
          <mxGeometry x="560" y="1072.49" width="70" height="15" as="geometry" />
        </mxCell>
        <mxCell id="TQJwsVCRrnrHWuq3ZA7s-136" style="edgeStyle=orthogonalEdgeStyle;rounded=0;orthogonalLoop=1;jettySize=auto;html=1;exitX=1;exitY=0.5;exitDx=0;exitDy=0;" edge="1" parent="1" source="TQJwsVCRrnrHWuq3ZA7s-135">
          <mxGeometry relative="1" as="geometry">
            <mxPoint x="890" y="1079.5882352941178" as="targetPoint" />
          </mxGeometry>
        </mxCell>
        <mxCell id="TQJwsVCRrnrHWuq3ZA7s-135" value="&lt;div style=&quot;line-height: 19px;&quot;&gt;&lt;font color=&quot;#ffffff&quot; style=&quot;font-size: 15px;&quot;&gt;The implementation comes from&lt;/font&gt;&lt;br&gt;&lt;/div&gt;" style="text;html=1;strokeColor=#23445d;fillColor=#3333FF;align=center;verticalAlign=middle;whiteSpace=wrap;rounded=1;gradientColor=#999999;fontFamily=Helvetica;" vertex="1" parent="1">
          <mxGeometry x="650" y="1055.63" width="155" height="48.75" as="geometry" />
        </mxCell>
        <mxCell id="TQJwsVCRrnrHWuq3ZA7s-137" value="&lt;div style=&quot;line-height: 120%;&quot;&gt;&lt;div style=&quot;line-height: 120%;&quot;&gt;&lt;div style=&quot;line-height: 120%;&quot;&gt;&lt;font style=&quot;font-size: 15px;&quot;&gt;Inherited libraries&lt;/font&gt;&lt;br&gt;&lt;/div&gt;&lt;/div&gt;&lt;/div&gt;" style="text;html=1;strokeColor=none;fillColor=none;align=left;verticalAlign=middle;whiteSpace=wrap;rounded=0;fontFamily=Helvetica;" vertex="1" parent="1">
          <mxGeometry x="900" y="1070.46" width="120" height="19.07" as="geometry" />
        </mxCell>
        <mxCell id="TQJwsVCRrnrHWuq3ZA7s-138" value="&lt;font style=&quot;font-size: 13px;&quot;&gt;ensures that&lt;/font&gt;" style="endArrow=block;endSize=16;endFill=0;html=1;rounded=0;" edge="1" parent="1">
          <mxGeometry width="160" relative="1" as="geometry">
            <mxPoint x="1030" y="1079.4" as="sourcePoint" />
            <mxPoint x="1190" y="1079.4" as="targetPoint" />
          </mxGeometry>
        </mxCell>
        <mxCell id="TQJwsVCRrnrHWuq3ZA7s-139" value="&lt;div style=&quot;line-height: 19px;&quot;&gt;&lt;font style=&quot;font-size: 15px;&quot;&gt;The contract complies with expected standards&lt;/font&gt;&lt;br&gt;&lt;/div&gt;" style="text;html=1;strokeColor=none;fillColor=none;align=center;verticalAlign=middle;whiteSpace=wrap;rounded=0;fontFamily=Helvetica;" vertex="1" parent="1">
          <mxGeometry x="1200" y="1032.81" width="100" height="94.37" as="geometry" />
        </mxCell>
        <mxCell id="TQJwsVCRrnrHWuq3ZA7s-140" value="&lt;div style=&quot;line-height: 19px;&quot;&gt;&lt;span style=&quot;font-size: 46px;&quot;&gt;☑️&lt;/span&gt;&lt;/div&gt;" style="text;html=1;strokeColor=none;fillColor=none;align=center;verticalAlign=middle;whiteSpace=wrap;rounded=0;fontFamily=Helvetica;" vertex="1" parent="1">
          <mxGeometry x="1320" y="1032.81" width="100" height="94.37" as="geometry" />
        </mxCell>
      </root>
    </mxGraphModel>
  </diagram>
</mxfile>
